<svg class="cyg2g cfzzb" width="24" height="24" viewBox="0 0 24 24"
  xmlns="http://www.w3.org/2000/svg">
  <path class="cwbda"
    d="M19.888 7.804a.88.88 0 0 0-.314-.328l-7.11-4.346a.889.889 0 0 0-.927 0L4.426 7.476a.88.88 0 0 0-.314.328L12 12.624l7.888-4.82Z"></path>
  <path class="c8myu cjtfl"
    d="M4.112 7.804a.889.889 0 0 0-.112.43v7.892c0 .31.161.597.426.758l7.11 4.346c.14.085.3.13.464.13v-8.736l-7.888-4.82Z"></path>
  <path class="cpt26"
    d="M19.888 7.804c.073.132.112.28.112.43v7.892c0 .31-.161.597-.426.758l-7.11 4.346c-.14.085-.3.13-.464.13v-8.736l7.888-4.82Z"></path>
</svg>